<?xml version="1.0" encoding="UTF-8"?> <svg xmlns="http://www.w3.org/2000/svg" width="188" height="108" viewBox="0 0 188 108" fill="none"><g clip-path="url(#clip0_566_157)"><path d="M187.92 0H-0.560059V107.28H187.92V0Z" fill="black"></path><path d="M13.6802 14.78H26.0602C38.9002 14.78 40.9802 29.91 32.0602 34.55L35.8602 44.35H29.0602L25.8102 35.9H20.0202V44.35H13.6802V14.78ZM20.0102 21.12V29.57H26.0502C32.8902 29.57 32.8102 21.12 26.0502 21.12H20.0102Z" fill="white"></path><path d="M45.2402 33.24C52.6802 33.24 52.6802 44.35 45.2402 44.35C37.8002 44.35 37.8002 33.24 45.2402 33.24ZM59.1402 44.36H52.8002V29.57H39.7002V23.23H59.1402V44.36Z" fill="#38FFDA"></path><path d="M60.8301 23.23H67.1701V26.31C68.3101 24.2 71.1801 22.8 74.2301 22.8C78.5801 22.8 83.2301 25.76 83.2301 33.7V44.35H76.8501V33.79C76.8501 30.11 74.4801 28.38 72.1201 28.38C69.7601 28.38 67.1801 30.24 67.1801 33.79V44.35H60.8401V23.22L60.8301 23.23Z" fill="white"></path><path d="M84.9202 14.78H91.2602V29.31L96.9602 23.23H105.62L95.5602 34L105.62 44.35H96.7902L91.2502 38.69V44.35H84.9102V14.78H84.9202Z" fill="white"></path><path d="M97.64 59.04L89.99 80.46H83.27L93.79 50.88H101.44L112 80.46H105.28L97.63 59.04H97.64Z" fill="#38FFDA"></path><path d="M121.85 58.87H135.37V65.21H131.95C134.82 71.84 131.44 81.27 121.85 81.27C107.06 81.27 107.06 58.88 121.85 58.88V58.87ZM132.83 81.26C132.83 88.78 127.42 92.5 122.06 92.5C116.7 92.5 111.24 88.78 111.24 81.26H117.62C117.62 84.47 119.82 86.03 122.06 86.03C124.3 86.03 126.45 84.47 126.45 81.26H132.83ZM121.85 65.2C115.56 65.2 115.47 74.92 121.85 74.92C128.23 74.92 128.19 65.2 121.85 65.2Z" fill="white"></path><path d="M137.06 59.33H143.4V80.46H137.06V59.33ZM140.31 52.11C144.45 52.11 144.45 58.28 140.31 58.28C136.17 58.28 136.17 52.11 140.31 52.11Z" fill="white"></path><path d="M145.13 50.88H151.47V80.46H145.13V50.88Z" fill="white"></path><path d="M164.27 58.87C172.72 58.87 174.83 67.11 174.11 72.14H160.17C160.8 73.7 162.28 74.93 164.52 74.93C165.58 74.93 166.89 74.59 168.11 73.41L172.59 77.97C170.14 80.46 167.14 81.27 164.52 81.27C149.73 81.27 150.24 58.88 164.27 58.88V58.87ZM168.28 67.91C167.65 66.05 166.08 65.21 164.48 65.21C162.75 65.21 160.97 66.14 160.21 67.91H168.28Z" fill="white"></path><path d="M94.2002 80.46L97.6402 71.55L99.9002 80.46H94.2002Z" fill="#38FFDA"></path></g><defs><clipPath id="clip0_566_157"><rect width="187.92" height="107.28" fill="white"></rect></clipPath></defs></svg> 