<?xml version="1.0" encoding="UTF-8"?> <svg xmlns="http://www.w3.org/2000/svg" id="Capa_1" data-name="Capa 1" viewBox="0 0 187.92 107.28"><defs><style> .cls-1 { fill: #38ffda; } .cls-2 { fill: #fff; } .cls-3 { fill: #191713; } </style></defs><rect class="cls-3" x="-.56" width="188.48" height="107.28"></rect><g><g><path class="cls-2" d="M13.68,14.78h12.38c12.84,0,14.92,15.13,6,19.77l3.8,9.8h-6.8l-3.25-8.45h-5.79v8.45h-6.34V14.78ZM20.01,21.12v8.45h6.04c6.84,0,6.76-8.45,0-8.45h-6.04Z"></path><path class="cls-1" d="M45.24,33.24c7.44,0,7.44,11.11,0,11.11s-7.44-11.11,0-11.11ZM59.14,44.36h-6.34v-14.79h-13.1v-6.34h19.44v21.13Z"></path><path class="cls-2" d="M60.83,23.23h6.34v3.08c1.14-2.11,4.01-3.51,7.06-3.51,4.35,0,9,2.96,9,10.9v10.65h-6.38v-10.56c0-3.68-2.37-5.41-4.73-5.41s-4.94,1.86-4.94,5.41v10.56h-6.34v-21.13Z"></path><path class="cls-2" d="M84.92,14.78h6.34v14.53l5.7-6.08h8.66l-10.06,10.77,10.06,10.35h-8.83l-5.54-5.66v5.66h-6.34V14.78Z"></path></g><g><path class="cls-1" d="M97.64,59.04l-7.65,21.42h-6.72l10.52-29.58h7.65l10.56,29.58h-6.72l-7.65-21.42Z"></path><path class="cls-2" d="M121.85,58.87h13.52v6.34h-3.42c2.87,6.63-.51,16.06-10.1,16.06-14.79,0-14.79-22.39,0-22.39ZM132.83,81.26c0,7.52-5.41,11.24-10.77,11.24s-10.82-3.72-10.82-11.24h6.38c0,3.21,2.2,4.77,4.44,4.77s4.39-1.56,4.39-4.77h6.38ZM121.85,65.2c-6.29,0-6.38,9.72,0,9.72s6.34-9.72,0-9.72Z"></path><path class="cls-2" d="M137.06,59.33h6.34v21.13h-6.34v-21.13ZM140.31,52.11c4.14,0,4.14,6.17,0,6.17s-4.14-6.17,0-6.17Z"></path><path class="cls-2" d="M145.13,50.88h6.34v29.58h-6.34v-29.58Z"></path><path class="cls-2" d="M164.27,58.87c8.45,0,10.56,8.24,9.84,13.27h-13.94c.63,1.56,2.11,2.79,4.35,2.79,1.06,0,2.37-.34,3.59-1.52l4.48,4.56c-2.45,2.49-5.45,3.3-8.07,3.3-14.79,0-14.28-22.39-.25-22.39ZM168.28,67.91c-.63-1.86-2.2-2.7-3.8-2.7-1.73,0-3.51.93-4.27,2.7h8.07Z"></path></g><polygon class="cls-1" points="94.2 80.46 97.64 71.55 99.9 80.46 94.2 80.46"></polygon></g></svg> 