<svg viewBox="80 160 700 410" xmlns="http://www.w3.org/2000/svg">
<rect x="80" y="160" width="700" height="410" rx="64" fill="#0a0a0a"/>
<path fill-rule="evenodd" clip-rule="evenodd" d="M443.395 442.279L443.393 557.832H462.478L672.71 288.072L672.932 239.56L612.536 239.663L443.395 442.279ZM739.519 286.998L738.655 176.941L612.536 177.147L576.861 219.628L694.066 219.424L694.847 321.355L739.519 286.998Z" fill="#00FFC7"/>
<path fill-rule="evenodd" clip-rule="evenodd" d="M761.797 558.802L612.451 403.2L566.214 462.791L655.366 558.802H761.797Z" fill="#FFFFFF"/>
<path fill-rule="evenodd" clip-rule="evenodd" d="M371.81 356.957H443.393V258.256C415.787 209.924 363.355 177.239 303.171 177.048L302.977 177.047C302.865 177.047 302.753 177.047 302.639 177.047C301.867 177.047 301.098 177.052 300.329 177.062C301.098 177.052 301.867 177.046 302.639 177.046L220.652 176.786L104.285 176.415L166.54 250.617L180.231 266.937H296.287H301.101C301.612 266.926 302.125 266.921 302.64 266.921C303.154 266.921 303.668 266.926 304.179 266.937C342.341 267.746 373.025 298.525 373.025 336.377C373.025 342.924 372.107 349.26 370.391 355.265L371.81 356.957H369.883H255.754L296.544 405.576L362.629 484.347L424.281 557.832H443.393V442.28L433.202 430.132L371.81 356.957Z" fill="#FFFFFF"/>
</svg>
